<mxfile host="Electron" agent="Mozilla/5.0 (Windows NT 10.0; Win64; x64) AppleWebKit/537.36 (KHTML, like Gecko) draw.io/28.1.2 Chrome/138.0.7204.243 Electron/37.4.0 Safari/537.36" version="28.1.2">
  <diagram name="Seite-1" id="MN55X80tZvdSMw5g7Any">
    <mxGraphModel dx="1742" dy="2649" grid="1" gridSize="10" guides="1" tooltips="1" connect="1" arrows="1" fold="1" page="1" pageScale="1" pageWidth="827" pageHeight="1169" math="0" shadow="0">
      <root>
        <mxCell id="0" />
        <mxCell id="1" parent="0" />
        <mxCell id="jWSLLmVwck5b10ygk8pj-1" value="" style="pointerEvents=1;verticalLabelPosition=bottom;shadow=0;dashed=0;align=center;html=1;verticalAlign=top;shape=mxgraph.electrical.waveforms.sine_wave;" vertex="1" parent="1">
          <mxGeometry x="160" y="80" width="80" height="80" as="geometry" />
        </mxCell>
        <mxCell id="jWSLLmVwck5b10ygk8pj-2" value="" style="pointerEvents=1;verticalLabelPosition=bottom;shadow=0;dashed=0;align=center;html=1;verticalAlign=top;shape=mxgraph.electrical.waveforms.square_wave;" vertex="1" parent="1">
          <mxGeometry x="40" y="80" width="80" height="80" as="geometry" />
        </mxCell>
        <mxCell id="jWSLLmVwck5b10ygk8pj-27" style="edgeStyle=orthogonalEdgeStyle;rounded=0;orthogonalLoop=1;jettySize=auto;html=1;entryX=0.5;entryY=1;entryDx=0;entryDy=0;" edge="1" parent="1" source="jWSLLmVwck5b10ygk8pj-3" target="jWSLLmVwck5b10ygk8pj-10">
          <mxGeometry relative="1" as="geometry" />
        </mxCell>
        <mxCell id="jWSLLmVwck5b10ygk8pj-3" value="" style="verticalLabelPosition=bottom;shadow=0;dashed=0;align=center;html=1;verticalAlign=top;shape=mxgraph.electrical.radio.aerial_-_antenna_2;rotation=90;" vertex="1" parent="1">
          <mxGeometry x="230" y="870" width="79" height="100" as="geometry" />
        </mxCell>
        <mxCell id="jWSLLmVwck5b10ygk8pj-30" style="edgeStyle=orthogonalEdgeStyle;rounded=0;orthogonalLoop=1;jettySize=auto;html=1;entryX=0.5;entryY=1;entryDx=0;entryDy=0;" edge="1" parent="1" source="jWSLLmVwck5b10ygk8pj-4" target="jWSLLmVwck5b10ygk8pj-29">
          <mxGeometry relative="1" as="geometry" />
        </mxCell>
        <mxCell id="jWSLLmVwck5b10ygk8pj-4" value="" style="verticalLabelPosition=bottom;shadow=0;dashed=0;align=center;html=1;verticalAlign=top;shape=mxgraph.electrical.radio.aerial_-_antenna_2;rotation=-90;" vertex="1" parent="1">
          <mxGeometry x="490" y="870" width="79" height="100" as="geometry" />
        </mxCell>
        <mxCell id="jWSLLmVwck5b10ygk8pj-6" value="" style="pointerEvents=1;verticalLabelPosition=bottom;shadow=0;dashed=0;align=center;html=1;verticalAlign=top;shape=mxgraph.electrical.waveforms.sine_wave;" vertex="1" parent="1">
          <mxGeometry x="680" y="80" width="80" height="80" as="geometry" />
        </mxCell>
        <mxCell id="jWSLLmVwck5b10ygk8pj-7" value="" style="pointerEvents=1;verticalLabelPosition=bottom;shadow=0;dashed=0;align=center;html=1;verticalAlign=top;shape=mxgraph.electrical.waveforms.square_wave;" vertex="1" parent="1">
          <mxGeometry x="560" y="80" width="80" height="80" as="geometry" />
        </mxCell>
        <mxCell id="jWSLLmVwck5b10ygk8pj-24" style="edgeStyle=orthogonalEdgeStyle;rounded=0;orthogonalLoop=1;jettySize=auto;html=1;" edge="1" parent="1" source="jWSLLmVwck5b10ygk8pj-8" target="jWSLLmVwck5b10ygk8pj-10">
          <mxGeometry relative="1" as="geometry" />
        </mxCell>
        <mxCell id="jWSLLmVwck5b10ygk8pj-8" value="Soundcard" style="whiteSpace=wrap;html=1;aspect=fixed;" vertex="1" parent="1">
          <mxGeometry x="100" y="600" width="80" height="80" as="geometry" />
        </mxCell>
        <mxCell id="jWSLLmVwck5b10ygk8pj-38" style="edgeStyle=orthogonalEdgeStyle;rounded=0;orthogonalLoop=1;jettySize=auto;html=1;exitX=0.5;exitY=0;exitDx=0;exitDy=0;entryX=0.5;entryY=0;entryDx=0;entryDy=0;" edge="1" parent="1" source="jWSLLmVwck5b10ygk8pj-9" target="jWSLLmVwck5b10ygk8pj-14">
          <mxGeometry relative="1" as="geometry">
            <Array as="points">
              <mxPoint x="50" y="260" />
            </Array>
          </mxGeometry>
        </mxCell>
        <mxCell id="jWSLLmVwck5b10ygk8pj-9" value="" style="whiteSpace=wrap;html=1;aspect=fixed;" vertex="1" parent="1">
          <mxGeometry y="260" width="280" height="280" as="geometry" />
        </mxCell>
        <mxCell id="jWSLLmVwck5b10ygk8pj-10" value="Quadrature Modulator&lt;br&gt;&lt;br&gt;&lt;div&gt;LTC5589&lt;/div&gt;" style="whiteSpace=wrap;html=1;aspect=fixed;" vertex="1" parent="1">
          <mxGeometry x="100" y="730" width="80" height="80" as="geometry" />
        </mxCell>
        <mxCell id="jWSLLmVwck5b10ygk8pj-26" style="edgeStyle=orthogonalEdgeStyle;rounded=0;orthogonalLoop=1;jettySize=auto;html=1;entryX=1;entryY=0.5;entryDx=0;entryDy=0;" edge="1" parent="1" source="jWSLLmVwck5b10ygk8pj-11" target="jWSLLmVwck5b10ygk8pj-10">
          <mxGeometry relative="1" as="geometry" />
        </mxCell>
        <mxCell id="jWSLLmVwck5b10ygk8pj-11" value="&lt;div&gt;PLL&lt;/div&gt;&lt;div&gt;&lt;br&gt;&lt;/div&gt;ADF4350" style="whiteSpace=wrap;html=1;aspect=fixed;" vertex="1" parent="1">
          <mxGeometry x="240" y="730" width="80" height="80" as="geometry" />
        </mxCell>
        <mxCell id="jWSLLmVwck5b10ygk8pj-12" value="" style="endArrow=classic;html=1;rounded=0;entryX=0.5;entryY=0;entryDx=0;entryDy=0;" edge="1" parent="1" target="jWSLLmVwck5b10ygk8pj-9">
          <mxGeometry width="50" height="50" relative="1" as="geometry">
            <mxPoint x="80" y="170" as="sourcePoint" />
            <mxPoint x="140" y="220" as="targetPoint" />
            <Array as="points">
              <mxPoint x="80" y="200" />
              <mxPoint x="140" y="200" />
            </Array>
          </mxGeometry>
        </mxCell>
        <mxCell id="jWSLLmVwck5b10ygk8pj-13" value="" style="endArrow=classic;html=1;rounded=0;entryX=0.5;entryY=0;entryDx=0;entryDy=0;" edge="1" parent="1" target="jWSLLmVwck5b10ygk8pj-9">
          <mxGeometry width="50" height="50" relative="1" as="geometry">
            <mxPoint x="200" y="170" as="sourcePoint" />
            <mxPoint x="140" y="220" as="targetPoint" />
            <Array as="points">
              <mxPoint x="200" y="200" />
              <mxPoint x="140" y="200" />
            </Array>
          </mxGeometry>
        </mxCell>
        <mxCell id="jWSLLmVwck5b10ygk8pj-14" value="&lt;p&gt;source coding&lt;/p&gt;" style="whiteSpace=wrap;html=1;aspect=fixed;" vertex="1" parent="1">
          <mxGeometry x="10" y="283" width="80" height="80" as="geometry" />
        </mxCell>
        <mxCell id="jWSLLmVwck5b10ygk8pj-15" value="&lt;p&gt;channel coding&lt;/p&gt;" style="whiteSpace=wrap;html=1;aspect=fixed;" vertex="1" parent="1">
          <mxGeometry x="100" y="314" width="80" height="80" as="geometry" />
        </mxCell>
        <mxCell id="jWSLLmVwck5b10ygk8pj-16" value="&lt;p&gt;Frameing&lt;/p&gt;" style="whiteSpace=wrap;html=1;aspect=fixed;" vertex="1" parent="1">
          <mxGeometry x="190" y="364" width="80" height="80" as="geometry" />
        </mxCell>
        <mxCell id="jWSLLmVwck5b10ygk8pj-17" value="&lt;p&gt;Mapping&lt;/p&gt;" style="whiteSpace=wrap;html=1;aspect=fixed;" vertex="1" parent="1">
          <mxGeometry x="100" y="420" width="80" height="80" as="geometry" />
        </mxCell>
        <mxCell id="jWSLLmVwck5b10ygk8pj-37" style="edgeStyle=orthogonalEdgeStyle;rounded=0;orthogonalLoop=1;jettySize=auto;html=1;exitX=1;exitY=0.75;exitDx=0;exitDy=0;" edge="1" parent="1" source="jWSLLmVwck5b10ygk8pj-18">
          <mxGeometry relative="1" as="geometry">
            <mxPoint x="140" y="540" as="targetPoint" />
          </mxGeometry>
        </mxCell>
        <mxCell id="jWSLLmVwck5b10ygk8pj-18" value="&lt;p&gt;Pulsformung&lt;/p&gt;" style="whiteSpace=wrap;html=1;aspect=fixed;" vertex="1" parent="1">
          <mxGeometry x="10" y="454" width="80" height="80" as="geometry" />
        </mxCell>
        <mxCell id="jWSLLmVwck5b10ygk8pj-19" value="" style="endArrow=classic;html=1;rounded=0;entryX=0.5;entryY=0;entryDx=0;entryDy=0;exitX=1;exitY=0.25;exitDx=0;exitDy=0;" edge="1" parent="1" source="jWSLLmVwck5b10ygk8pj-14" target="jWSLLmVwck5b10ygk8pj-15">
          <mxGeometry width="50" height="50" relative="1" as="geometry">
            <mxPoint x="170" y="240" as="sourcePoint" />
            <mxPoint x="200" y="430" as="targetPoint" />
            <Array as="points">
              <mxPoint x="140" y="303" />
            </Array>
          </mxGeometry>
        </mxCell>
        <mxCell id="jWSLLmVwck5b10ygk8pj-20" value="" style="endArrow=classic;html=1;rounded=0;exitX=1;exitY=0.25;exitDx=0;exitDy=0;entryX=0.5;entryY=0;entryDx=0;entryDy=0;" edge="1" parent="1" source="jWSLLmVwck5b10ygk8pj-15" target="jWSLLmVwck5b10ygk8pj-16">
          <mxGeometry width="50" height="50" relative="1" as="geometry">
            <mxPoint x="150" y="480" as="sourcePoint" />
            <mxPoint x="200" y="430" as="targetPoint" />
            <Array as="points">
              <mxPoint x="230" y="334" />
            </Array>
          </mxGeometry>
        </mxCell>
        <mxCell id="jWSLLmVwck5b10ygk8pj-21" value="" style="endArrow=classic;html=1;rounded=0;exitX=0;exitY=0.5;exitDx=0;exitDy=0;entryX=0.5;entryY=0;entryDx=0;entryDy=0;" edge="1" parent="1" source="jWSLLmVwck5b10ygk8pj-16" target="jWSLLmVwck5b10ygk8pj-17">
          <mxGeometry width="50" height="50" relative="1" as="geometry">
            <mxPoint x="150" y="480" as="sourcePoint" />
            <mxPoint x="200" y="430" as="targetPoint" />
            <Array as="points">
              <mxPoint x="140" y="404" />
            </Array>
          </mxGeometry>
        </mxCell>
        <mxCell id="jWSLLmVwck5b10ygk8pj-22" value="" style="endArrow=classic;html=1;rounded=0;exitX=0;exitY=0.25;exitDx=0;exitDy=0;entryX=0.5;entryY=0;entryDx=0;entryDy=0;" edge="1" parent="1" source="jWSLLmVwck5b10ygk8pj-17" target="jWSLLmVwck5b10ygk8pj-18">
          <mxGeometry width="50" height="50" relative="1" as="geometry">
            <mxPoint x="150" y="480" as="sourcePoint" />
            <mxPoint x="200" y="430" as="targetPoint" />
            <Array as="points">
              <mxPoint x="50" y="440" />
            </Array>
          </mxGeometry>
        </mxCell>
        <mxCell id="jWSLLmVwck5b10ygk8pj-23" value="" style="endArrow=classic;html=1;rounded=0;exitX=0.5;exitY=1;exitDx=0;exitDy=0;entryX=0.5;entryY=0;entryDx=0;entryDy=0;" edge="1" parent="1" source="jWSLLmVwck5b10ygk8pj-9" target="jWSLLmVwck5b10ygk8pj-8">
          <mxGeometry width="50" height="50" relative="1" as="geometry">
            <mxPoint x="150" y="480" as="sourcePoint" />
            <mxPoint x="200" y="430" as="targetPoint" />
          </mxGeometry>
        </mxCell>
        <mxCell id="jWSLLmVwck5b10ygk8pj-31" style="edgeStyle=orthogonalEdgeStyle;rounded=0;orthogonalLoop=1;jettySize=auto;html=1;entryX=0;entryY=0.5;entryDx=0;entryDy=0;" edge="1" parent="1" source="jWSLLmVwck5b10ygk8pj-28" target="jWSLLmVwck5b10ygk8pj-29">
          <mxGeometry relative="1" as="geometry" />
        </mxCell>
        <mxCell id="jWSLLmVwck5b10ygk8pj-28" value="&lt;div&gt;PLL&lt;/div&gt;&lt;div&gt;&lt;br&gt;&lt;/div&gt;ADF4350" style="whiteSpace=wrap;html=1;aspect=fixed;" vertex="1" parent="1">
          <mxGeometry x="480" y="730" width="80" height="80" as="geometry" />
        </mxCell>
        <mxCell id="jWSLLmVwck5b10ygk8pj-34" style="edgeStyle=orthogonalEdgeStyle;rounded=0;orthogonalLoop=1;jettySize=auto;html=1;entryX=0.5;entryY=1;entryDx=0;entryDy=0;" edge="1" parent="1" source="jWSLLmVwck5b10ygk8pj-29" target="jWSLLmVwck5b10ygk8pj-32">
          <mxGeometry relative="1" as="geometry" />
        </mxCell>
        <mxCell id="jWSLLmVwck5b10ygk8pj-29" value="Quadrature Modulator&lt;br&gt;&lt;br&gt;&lt;div&gt;LTC5589&lt;/div&gt;" style="whiteSpace=wrap;html=1;aspect=fixed;" vertex="1" parent="1">
          <mxGeometry x="620" y="730" width="80" height="80" as="geometry" />
        </mxCell>
        <mxCell id="jWSLLmVwck5b10ygk8pj-36" style="edgeStyle=orthogonalEdgeStyle;rounded=0;orthogonalLoop=1;jettySize=auto;html=1;" edge="1" parent="1" source="jWSLLmVwck5b10ygk8pj-32" target="jWSLLmVwck5b10ygk8pj-35">
          <mxGeometry relative="1" as="geometry" />
        </mxCell>
        <mxCell id="jWSLLmVwck5b10ygk8pj-32" value="Soundcard" style="whiteSpace=wrap;html=1;aspect=fixed;" vertex="1" parent="1">
          <mxGeometry x="620" y="600" width="80" height="80" as="geometry" />
        </mxCell>
        <mxCell id="jWSLLmVwck5b10ygk8pj-52" style="edgeStyle=orthogonalEdgeStyle;rounded=0;orthogonalLoop=1;jettySize=auto;html=1;exitX=0.5;exitY=0;exitDx=0;exitDy=0;" edge="1" parent="1" source="jWSLLmVwck5b10ygk8pj-35">
          <mxGeometry relative="1" as="geometry">
            <mxPoint x="720" y="170" as="targetPoint" />
          </mxGeometry>
        </mxCell>
        <mxCell id="jWSLLmVwck5b10ygk8pj-35" value="" style="whiteSpace=wrap;html=1;aspect=fixed;" vertex="1" parent="1">
          <mxGeometry x="520" y="260" width="280" height="280" as="geometry" />
        </mxCell>
        <mxCell id="jWSLLmVwck5b10ygk8pj-39" style="edgeStyle=orthogonalEdgeStyle;rounded=0;orthogonalLoop=1;jettySize=auto;html=1;exitX=0.5;exitY=0;exitDx=0;exitDy=0;entryX=0.5;entryY=0;entryDx=0;entryDy=0;" edge="1" parent="1" source="jWSLLmVwck5b10ygk8pj-9" target="jWSLLmVwck5b10ygk8pj-14">
          <mxGeometry relative="1" as="geometry">
            <Array as="points">
              <mxPoint x="140" y="270" />
              <mxPoint x="50" y="270" />
            </Array>
          </mxGeometry>
        </mxCell>
        <mxCell id="jWSLLmVwck5b10ygk8pj-50" style="edgeStyle=orthogonalEdgeStyle;rounded=0;orthogonalLoop=1;jettySize=auto;html=1;entryX=0.5;entryY=0;entryDx=0;entryDy=0;" edge="1" parent="1" source="jWSLLmVwck5b10ygk8pj-40" target="jWSLLmVwck5b10ygk8pj-35">
          <mxGeometry relative="1" as="geometry">
            <Array as="points">
              <mxPoint x="570" y="270" />
              <mxPoint x="660" y="270" />
            </Array>
          </mxGeometry>
        </mxCell>
        <mxCell id="jWSLLmVwck5b10ygk8pj-40" value="&lt;p&gt;source decoding&lt;/p&gt;" style="whiteSpace=wrap;html=1;aspect=fixed;" vertex="1" parent="1">
          <mxGeometry x="530" y="274.5" width="80" height="80" as="geometry" />
        </mxCell>
        <mxCell id="jWSLLmVwck5b10ygk8pj-49" style="edgeStyle=orthogonalEdgeStyle;rounded=0;orthogonalLoop=1;jettySize=auto;html=1;entryX=1;entryY=0.25;entryDx=0;entryDy=0;" edge="1" parent="1" source="jWSLLmVwck5b10ygk8pj-41" target="jWSLLmVwck5b10ygk8pj-40">
          <mxGeometry relative="1" as="geometry">
            <Array as="points">
              <mxPoint x="660" y="294" />
            </Array>
          </mxGeometry>
        </mxCell>
        <mxCell id="jWSLLmVwck5b10ygk8pj-41" value="&lt;p&gt;channel decoding&lt;/p&gt;" style="whiteSpace=wrap;html=1;aspect=fixed;" vertex="1" parent="1">
          <mxGeometry x="620" y="305.5" width="80" height="80" as="geometry" />
        </mxCell>
        <mxCell id="jWSLLmVwck5b10ygk8pj-48" style="edgeStyle=orthogonalEdgeStyle;rounded=0;orthogonalLoop=1;jettySize=auto;html=1;entryX=1;entryY=0.25;entryDx=0;entryDy=0;" edge="1" parent="1" source="jWSLLmVwck5b10ygk8pj-42" target="jWSLLmVwck5b10ygk8pj-41">
          <mxGeometry relative="1" as="geometry">
            <Array as="points">
              <mxPoint x="750" y="326" />
            </Array>
          </mxGeometry>
        </mxCell>
        <mxCell id="jWSLLmVwck5b10ygk8pj-42" value="&lt;p&gt;demapping&lt;/p&gt;" style="whiteSpace=wrap;html=1;aspect=fixed;" vertex="1" parent="1">
          <mxGeometry x="710" y="355.5" width="80" height="80" as="geometry" />
        </mxCell>
        <mxCell id="jWSLLmVwck5b10ygk8pj-47" style="edgeStyle=orthogonalEdgeStyle;rounded=0;orthogonalLoop=1;jettySize=auto;html=1;entryX=0.5;entryY=1;entryDx=0;entryDy=0;exitX=1;exitY=0.5;exitDx=0;exitDy=0;" edge="1" parent="1" source="jWSLLmVwck5b10ygk8pj-43" target="jWSLLmVwck5b10ygk8pj-42">
          <mxGeometry relative="1" as="geometry">
            <Array as="points">
              <mxPoint x="750" y="452" />
            </Array>
          </mxGeometry>
        </mxCell>
        <mxCell id="jWSLLmVwck5b10ygk8pj-43" value="&lt;p&gt;synch-ronisation&lt;/p&gt;" style="whiteSpace=wrap;html=1;aspect=fixed;" vertex="1" parent="1">
          <mxGeometry x="620" y="411.5" width="80" height="80" as="geometry" />
        </mxCell>
        <mxCell id="jWSLLmVwck5b10ygk8pj-44" value="&lt;p&gt;Matchedfilter&lt;/p&gt;" style="whiteSpace=wrap;html=1;aspect=fixed;" vertex="1" parent="1">
          <mxGeometry x="530" y="445.5" width="80" height="80" as="geometry" />
        </mxCell>
        <mxCell id="jWSLLmVwck5b10ygk8pj-45" style="edgeStyle=orthogonalEdgeStyle;rounded=0;orthogonalLoop=1;jettySize=auto;html=1;exitX=0.5;exitY=1;exitDx=0;exitDy=0;entryX=1;entryY=0.75;entryDx=0;entryDy=0;" edge="1" parent="1" source="jWSLLmVwck5b10ygk8pj-35" target="jWSLLmVwck5b10ygk8pj-44">
          <mxGeometry relative="1" as="geometry">
            <Array as="points">
              <mxPoint x="660" y="505" />
              <mxPoint x="610" y="505" />
            </Array>
          </mxGeometry>
        </mxCell>
        <mxCell id="jWSLLmVwck5b10ygk8pj-46" style="edgeStyle=orthogonalEdgeStyle;rounded=0;orthogonalLoop=1;jettySize=auto;html=1;entryX=0.011;entryY=0.198;entryDx=0;entryDy=0;entryPerimeter=0;" edge="1" parent="1" source="jWSLLmVwck5b10ygk8pj-44" target="jWSLLmVwck5b10ygk8pj-43">
          <mxGeometry relative="1" as="geometry">
            <Array as="points">
              <mxPoint x="570" y="427" />
            </Array>
          </mxGeometry>
        </mxCell>
        <mxCell id="jWSLLmVwck5b10ygk8pj-51" style="edgeStyle=orthogonalEdgeStyle;rounded=0;orthogonalLoop=1;jettySize=auto;html=1;exitX=0.5;exitY=0;exitDx=0;exitDy=0;" edge="1" parent="1" source="jWSLLmVwck5b10ygk8pj-35">
          <mxGeometry relative="1" as="geometry">
            <mxPoint x="600" y="170" as="targetPoint" />
          </mxGeometry>
        </mxCell>
        <mxCell id="jWSLLmVwck5b10ygk8pj-53" value="" style="endArrow=none;html=1;rounded=0;curved=1;" edge="1" parent="1">
          <mxGeometry width="50" height="50" relative="1" as="geometry">
            <mxPoint x="340" y="975" as="sourcePoint" />
            <mxPoint x="340" y="865" as="targetPoint" />
            <Array as="points">
              <mxPoint x="380" y="920" />
            </Array>
          </mxGeometry>
        </mxCell>
        <mxCell id="jWSLLmVwck5b10ygk8pj-54" value="" style="endArrow=none;html=1;rounded=0;curved=1;" edge="1" parent="1">
          <mxGeometry width="50" height="50" relative="1" as="geometry">
            <mxPoint x="360" y="975" as="sourcePoint" />
            <mxPoint x="360" y="865" as="targetPoint" />
            <Array as="points">
              <mxPoint x="390" y="920" />
            </Array>
          </mxGeometry>
        </mxCell>
      </root>
    </mxGraphModel>
  </diagram>
</mxfile>
